<svg width="126" height="37" viewBox="0 0 126 37" fill="none" xmlns="http://www.w3.org/2000/svg">
<path d="M43.6436 16.8647V3.97681H53.572V6.23041H46.2024V16.6102H53.789V18.8638H43.6436V16.8647Z" fill="#F4F4F4"/>
<path d="M54.8979 18.8627V9.07998L57.0652 6.95361H63.4373V9.16562H57.4119V18.8652H54.8979V18.8627Z" fill="#F4F4F4"/>
<path d="M64.5029 5.59561V3.68213H67.0168V5.59561H64.5029ZM64.5029 18.8676V6.95609H67.0168V18.8676H64.5029Z" fill="#F4F4F4"/>
<path d="M68.7202 5.04121L71.2341 3.97681V7.38046H76.3941V9.50682H71.2341V16.7374H76.3941V18.8638H70.8875L68.7202 16.7374V5.04121Z" fill="#F4F4F4"/>
<path d="M77.2344 16.7804V9.03838L79.3592 6.95361H87.8562V13.5896H79.7483V16.7364H87.4222V18.8627H79.3592L77.2344 16.778V16.7804ZM79.7483 12.0163L85.5792 11.8523V9.70149H79.7483V12.0138V12.0163Z" fill="#F4F4F4"/>
<path d="M89.2891 18.8627V9.07998L91.4563 6.95361H97.8284V9.16562H91.803V18.8652H89.2891V18.8627Z" fill="#F4F4F4"/>
<path d="M98.7793 5.59561V3.68213H101.293V5.59561H98.7793ZM98.7793 18.8676V6.95609H101.293V18.8676H98.7793Z" fill="#F4F4F4"/>
<path d="M102.723 16.7804V9.03838L104.848 6.95361H111.437L113.562 9.03838V16.7804L111.437 18.8652H104.848L102.723 16.7804ZM105.237 16.7804H111.046V9.03838H105.237V16.7804Z" fill="#F4F4F4"/>
<path d="M114.991 18.8627V6.95361H123.834L126.002 9.07998V18.8627H123.488V9.12157H117.505V18.8627H114.991Z" fill="#F4F4F4"/>
<path d="M43.665 36.0052V21.1157H46.179V27.2403H53.1596V21.1157H55.6735V36.0052H53.1596V29.4548H46.179V36.0052H43.665Z" fill="#F4F4F4"/>
<path d="M57.1055 33.9203V26.1783L59.2303 24.0935H65.8194L67.9442 26.1783V33.9203L65.8194 36.0051H59.2303L57.1055 33.9203ZM59.6194 33.9203H65.4278V26.1783H59.6194V33.9203Z" fill="#F4F4F4"/>
<path d="M69.3755 24.0935H84.5513L86.8931 26.3912V36.0051H84.3992V26.2003H79.3689V36.0051H76.8973V26.2003H71.867V36.0051H69.373V24.0935H69.3755Z" fill="#F4F4F4"/>
<path d="M88.3213 33.9203V26.1783L90.4461 24.0935H98.9431V30.7295H90.8352V33.8762H98.5091V36.0026H90.4461L88.3213 33.9178V33.9203ZM90.8352 29.1562L96.6661 28.9433V26.1367H90.8352V29.1562Z" fill="#F4F4F4"/>
<path d="M100.248 36.0051V33.9203H108.485V30.8568H100.248V26.1783L102.372 24.0935H110.999V26.1783H102.762V29.0705H110.999V33.9839L108.939 36.0051H100.245H100.248Z" fill="#F4F4F4"/>
<path d="M112.773 36.0045V33.4524H115.202V36.0045H112.773Z" fill="#F4F4F4"/>
<path d="M35.7993 13.0087C35.7619 18.0934 35.742 20.9562 35.707 26.036L25.3521 36.105C20.5163 36.0953 17.7904 36.0928 12.9521 36.0855L10.1788 33.3718L2.52734 25.6445L10.1738 18.316L10.6651 17.8438L17.9625 25.1478L25.0528 18.316L17.8029 11.0267L18.1221 10.7208L26.033 3.177L33.6071 10.8211L35.7993 13.0111V13.0087Z" fill="#F4F4F4"/>
<path d="M14.0186 7.37718L7.40209 13.8395L0 6.4498L6.66387 0.00219727L14.0186 7.37718Z" fill="#DC7322"/>
</svg>
