<svg width="1030" height="301" viewBox="0 0 1030 301" fill="none" xmlns="http://www.w3.org/2000/svg">
<g opacity="0.7">
<path d="M357 140.829V33.5171H438.11V52.2819H377.904V138.71H439.883V157.475H357V140.829Z" fill="#F2F2F2"/>
<path d="M448.93 157.474V76.0173L466.635 58.312H518.691V76.7304H469.467V157.494H448.93V157.474Z" fill="#F2F2F2"/>
<path d="M527.41 46.9847V31.052H547.947V46.9847H527.41ZM527.41 157.495V58.3129H547.947V157.495H527.41Z" fill="#F2F2F2"/>
<path d="M561.863 42.3799L582.401 33.5171V61.8578H624.555V79.5631H582.401V139.769H624.555V157.475H579.569L561.863 139.769V42.3799Z" fill="#F2F2F2"/>
<path d="M631.422 140.135V75.671L648.781 58.312H718.196V113.567H651.959V139.769H714.651V157.474H648.781L631.422 140.115V140.135ZM651.959 100.467L699.594 99.1014V81.1924H651.959V100.446V100.467Z" fill="#F2F2F2"/>
<path d="M729.891 157.474V76.0173L747.596 58.312H799.652V76.7304H750.428V157.494H729.891V157.474Z" fill="#F2F2F2"/>
<path d="M807.414 46.9845V31.0518H827.951V46.9845H807.414ZM807.414 157.495V58.3126H827.951V157.495H807.414Z" fill="#F2F2F2"/>
<path d="M839.648 140.135V75.671L857.007 58.312H910.836L928.195 75.671V140.135L910.836 157.494H857.007L839.648 140.135ZM860.186 140.135H907.638V75.671H860.186V140.135Z" fill="#F2F2F2"/>
<path d="M939.867 157.474V58.312H1012.11L1029.82 76.0173V157.474H1009.28V76.3637H960.404V157.474H939.867Z" fill="#F2F2F2"/>
<path d="M357.184 300.198V176.22H377.721V227.217H434.749V176.22H455.286V300.198H434.749V245.655H377.721V300.198H357.184Z" fill="#F2F2F2"/>
<path d="M466.98 282.838V218.374L484.339 201.015H538.168L555.527 218.374V282.838L538.168 300.197H484.339L466.98 282.838ZM487.518 282.838H534.97V218.374H487.518V282.838Z" fill="#F2F2F2"/>
<path d="M567.224 201.015H691.201L710.333 220.146V300.197H689.959V218.557H648.863V300.197H628.672V218.557H587.577V300.197H567.203V201.015H567.224Z" fill="#F2F2F2"/>
<path d="M722.008 282.838V218.374L739.367 201.015H808.782V256.27H742.545V282.471H805.237V300.177H739.367L722.008 282.818V282.838ZM742.545 243.169L790.18 241.397V218.027H742.545V243.169Z" fill="#F2F2F2"/>
<path d="M819.415 300.197V282.838H886.711V257.329H819.415V218.374L836.774 201.015H907.249V218.374H839.952V242.456H907.249V283.368L890.419 300.197H819.395H819.415Z" fill="#F2F2F2"/>
<path d="M921.758 300.197V278.947H941.602V300.197H921.758Z" fill="#F2F2F2"/>
<path d="M292.923 108.678C292.618 151.015 292.455 174.853 292.17 217.151L207.575 300.991C168.07 300.91 145.8 300.889 106.274 300.828L83.6179 278.233L21.1094 213.891L83.5771 152.87L87.5909 148.937L147.206 209.755L205.13 152.87L145.902 92.1744L148.51 89.6276L213.138 26.8135L275.014 90.4629L292.923 108.698V108.678Z" fill="#F2F2F2"/>
<path d="M114.993 61.7969L60.9398 115.606L0.46875 54.0751L54.909 0.388672L114.993 61.7969Z" fill="#DC7322"/>
</g>
</svg>
